<?xml version="1.0" standalone="no"?><svg xmlns="http://www.w3.org/2000/svg" viewBox="0 0 1440 320"><path fill="#a2d9ff" fill-opacity="1" d="M0,64L20,64C40,64,80,64,120,74.7C160,85,200,107,240,106.7C280,107,320,85,360,69.3C400,53,440,43,480,74.7C520,107,560,181,600,192C640,203,680,149,720,133.3C760,117,800,139,840,154.7C880,171,920,181,960,192C1000,203,1040,213,1080,213.3C1120,213,1160,203,1200,176C1240,149,1280,107,1320,106.7C1360,107,1400,149,1420,170.7L1440,192L1440,320L1420,320C1400,320,1360,320,1320,320C1280,320,1240,320,1200,320C1160,320,1120,320,1080,320C1040,320,1000,320,960,320C920,320,880,320,840,320C800,320,760,320,720,320C680,320,640,320,600,320C560,320,520,320,480,320C440,320,400,320,360,320C320,320,280,320,240,320C200,320,160,320,120,320C80,320,40,320,20,320L0,320Z"></path></svg>